<svg width="33" height="29" viewBox="0 0 33 29" fill="none" xmlns="http://www.w3.org/2000/svg">
<path d="M16.7975 1.46831L16.4137 18.7604C16.4139 18.8456 16.3905 18.9292 16.3462 19.0021C16.3019 19.0751 16.2382 19.1344 16.1623 19.1738L0.686358 27.8058C0.596574 27.8525 0.494014 27.8691 0.394017 27.8529C0.29402 27.8368 0.201958 27.7888 0.1316 27.7163C0.0612421 27.6437 0.0163683 27.5504 0.0036893 27.4504C-0.00898972 27.3503 0.0112074 27.2488 0.0612603 27.1612L15.0445 0.85269C15.1021 0.752315 15.1949 0.676695 15.3052 0.64039C15.4154 0.604085 15.5352 0.609662 15.6416 0.656049L16.5192 1.04151C16.602 1.07836 16.6723 1.13825 16.7217 1.21397C16.7711 1.2897 16.7974 1.37802 16.7975 1.46831V1.46831Z" fill="#00B3DA"/>
<path d="M17.9512 7.01202V0.767568C17.951 0.666728 17.9709 0.566852 18.0096 0.47366C18.0483 0.380468 18.105 0.295793 18.1767 0.224488C18.2483 0.153184 18.3333 0.0966512 18.4269 0.0581294C18.5206 0.0196076 18.6209 -0.000146289 18.7222 8.1558e-07H21.4807C21.6392 0.000226551 21.7938 0.0490292 21.9235 0.139779C22.0532 0.230528 22.1517 0.358825 22.2057 0.507244L31.9906 27.4202C32.0328 27.5361 32.0463 27.6604 32.03 27.7827C32.0137 27.9049 31.9681 28.0214 31.8969 28.1224C31.8258 28.2233 31.7313 28.3057 31.6214 28.3626C31.5115 28.4195 31.3895 28.4492 31.2656 28.4492H25.5466C25.3852 28.449 25.228 28.3984 25.0969 28.3046C24.9659 28.2108 24.8676 28.0785 24.816 27.9263L18.1588 8.27231C18.0211 7.86626 17.951 7.44057 17.9512 7.01202V7.01202Z" fill="#067DBA"/>
<path d="M15.8607 24.5583L18.645 16.277C18.6793 16.1743 18.7452 16.085 18.8333 16.0217C18.9214 15.9584 19.0273 15.9243 19.136 15.9243C19.2447 15.9243 19.3506 15.9584 19.4388 16.0217C19.5269 16.085 19.5928 16.1743 19.627 16.277L22.4439 24.5605C22.47 24.6381 22.4773 24.7208 22.465 24.8018C22.4527 24.8828 22.4213 24.9597 22.3733 25.0261C22.3252 25.0926 22.262 25.1468 22.1888 25.1841C22.1156 25.2215 22.0346 25.2409 21.9523 25.2409H16.3523C16.2698 25.2411 16.1884 25.2216 16.115 25.1841C16.0416 25.1466 15.9782 25.0922 15.9301 25.0255C15.882 24.9587 15.8507 24.8815 15.8386 24.8002C15.8265 24.719 15.8341 24.636 15.8607 24.5583V24.5583Z" fill="#067DBA"/>
</svg>
