<svg width="131" height="40" viewBox="0 0 131 40" fill="none" xmlns="http://www.w3.org/2000/svg">
<path d="M50.1791 10.1581C54.3314 10.1581 57.6241 13.4719 57.6241 18.7745C57.6241 24.0771 54.3247 27.4513 50.1791 27.4513C47.6978 27.4513 45.9145 26.2759 44.974 24.8603V35.2241H39.7993V10.3994H44.974V12.7792C45.9078 11.3033 47.7034 10.1581 50.1791 10.1581ZM48.636 14.6473C46.699 14.6473 44.9437 16.1232 44.9437 18.8047C44.9437 21.4861 46.699 22.9643 48.636 22.9643C50.6033 22.9643 52.3585 21.4582 52.3585 18.7767C52.3585 16.0953 50.6033 14.6473 48.636 14.6473Z" fill="#32465D"/>
<path d="M60.3472 4.91675H65.5219V27.2109H60.3472V4.91675Z" fill="#32465D"/>
<path d="M75.6884 10.1581C78.2 10.1581 79.9855 11.3033 80.8935 12.7792V10.3994H86.0682V27.2099H80.8935V24.8301C79.9552 26.3061 78.1697 27.4513 75.6581 27.4513C71.5428 27.4513 68.24 24.0816 68.24 18.7745C68.24 13.4674 71.5428 10.1581 75.6884 10.1581ZM77.2012 14.6473C75.2642 14.6473 73.509 16.093 73.509 18.7745C73.509 21.456 75.2642 22.9643 77.2012 22.9643C79.1685 22.9643 80.8935 21.4884 80.8935 18.8069C80.8935 16.1254 79.1685 14.6473 77.2012 14.6473Z" fill="#32465D"/>
<path d="M101.469 18.0826C101.469 15.7922 100.199 14.5275 98.2313 14.5275C96.264 14.5275 94.9936 15.7922 94.9936 18.0826V27.2108H89.8188V10.4003H94.9936V12.6348C96.0227 11.2192 97.8385 10.2249 100.108 10.2249C104.012 10.2249 106.617 12.8761 106.617 17.3955V27.2108H101.469V18.0826Z" fill="#32465D"/>
<path d="M123.442 23.4751H115.513L114.242 27.2101H108.826L115.768 8.10471C115.986 7.50494 116.385 6.98663 116.909 6.62037C117.434 6.25411 118.059 6.05769 118.7 6.05786H120.314C120.956 6.0574 121.581 6.25366 122.106 6.61993C122.631 6.9862 123.03 7.50467 123.248 8.10471L130.19 27.2101H124.713L123.442 23.4751ZM119.477 11.7548L116.875 19.5009H122.11L119.477 11.7548Z" fill="#32465D"/>
<path d="M16.7975 2.34514L16.4137 19.6372C16.4139 19.7224 16.3905 19.8061 16.3462 19.879C16.3019 19.9519 16.2382 20.0113 16.1623 20.0506L0.686358 28.6827C0.596574 28.7294 0.494014 28.7459 0.394017 28.7297C0.29402 28.7136 0.201958 28.6657 0.1316 28.5931C0.0612421 28.5205 0.0163683 28.4273 0.0036893 28.3272C-0.00898972 28.2271 0.0112074 28.1257 0.0612603 28.038L15.0445 1.72952C15.1021 1.62915 15.1949 1.55353 15.3052 1.51722C15.4154 1.48092 15.5352 1.48649 15.6416 1.53288L16.5192 1.91834C16.602 1.95519 16.6723 2.01508 16.7217 2.0908C16.7711 2.16653 16.7974 2.25486 16.7975 2.34514Z" fill="#00B3DA"/>
<path d="M17.9512 7.88897V1.64452C17.951 1.54368 17.9709 1.4438 18.0096 1.35061C18.0483 1.25742 18.105 1.17275 18.1767 1.10144C18.2483 1.03014 18.3333 0.973604 18.4269 0.935083C18.5206 0.896561 18.6209 0.876807 18.7222 0.876954H21.4807C21.6392 0.87718 21.7938 0.925982 21.9235 1.01673C22.0532 1.10748 22.1517 1.23578 22.2057 1.3842L31.9906 28.2971C32.0328 28.4131 32.0463 28.5374 32.03 28.6596C32.0137 28.7819 31.9681 28.8984 31.8969 28.9993C31.8258 29.1003 31.7313 29.1827 31.6214 29.2396C31.5115 29.2964 31.3895 29.3261 31.2656 29.3261H25.5466C25.3852 29.3259 25.228 29.2754 25.0969 29.1816C24.9659 29.0878 24.8676 28.9555 24.816 28.8032L18.1588 9.14926C18.0211 8.74322 17.951 8.31752 17.9512 7.88897Z" fill="#067DBA"/>
<path d="M15.861 25.4351L18.6453 17.1539C18.6795 17.0512 18.7454 16.9618 18.8335 16.8985C18.9217 16.8352 19.0276 16.8011 19.1363 16.8011C19.2449 16.8011 19.3509 16.8352 19.439 16.8985C19.5271 16.9618 19.593 17.0512 19.6273 17.1539L22.4441 25.4373C22.4703 25.515 22.4775 25.5977 22.4653 25.6786C22.453 25.7596 22.4215 25.8365 22.3735 25.903C22.3255 25.9694 22.2623 26.0236 22.1891 26.0609C22.1159 26.0983 22.0348 26.1178 21.9526 26.1178H16.3525C16.27 26.1179 16.1886 26.0984 16.1152 26.0609C16.0418 26.0235 15.9784 25.9691 15.9303 25.9023C15.8823 25.8356 15.8509 25.7583 15.8388 25.6771C15.8268 25.5958 15.8343 25.5129 15.861 25.4351Z" fill="#067DBA"/>
<path d="M71.2896 39.2194C70.8307 39.2309 70.3746 39.1433 69.953 38.9624C69.5949 38.8053 69.2926 38.5445 69.0855 38.2139C68.8714 37.849 68.7555 37.4353 68.7488 37.0128C68.7436 36.7789 68.741 36.5305 68.741 36.2676C68.741 36.0046 68.7436 35.7536 68.7488 35.5145C68.7559 35.1003 68.8745 34.6956 69.0922 34.3425C69.3043 34.017 69.6091 33.7618 69.9676 33.6096C70.386 33.4326 70.8374 33.3466 71.2919 33.3571C71.66 33.3511 72.0268 33.402 72.3793 33.5079C72.6682 33.5946 72.9391 33.732 73.1795 33.9135C73.3793 34.0647 73.5461 34.2547 73.6699 34.4721C73.7762 34.6531 73.8366 34.8571 73.8461 35.0665C73.8493 35.0889 73.8468 35.1117 73.839 35.133C73.8312 35.1542 73.8182 35.1732 73.8012 35.1883C73.7669 35.2204 73.7215 35.238 73.6744 35.2374H72.4758C72.4292 35.2408 72.3826 35.2311 72.3412 35.2095C72.3085 35.1875 72.2815 35.158 72.2626 35.1235C72.2177 35.0313 72.1616 34.945 72.0954 34.8665C72.0115 34.7695 71.9083 34.6907 71.7924 34.6352C71.635 34.5633 71.4627 34.5296 71.2896 34.5369C71.0232 34.5216 70.761 34.6092 70.5579 34.7816C70.3806 34.9447 70.2837 35.2054 70.2672 35.5637C70.2515 36.03 70.2515 36.5022 70.2672 36.9804C70.2844 37.3603 70.3854 37.6344 70.5702 37.8027C70.7743 37.9774 71.0377 38.0677 71.3064 38.0552C71.4959 38.0584 71.6839 38.0222 71.8586 37.9491C72.0164 37.8807 72.1492 37.7656 72.239 37.6195C72.3375 37.4444 72.3853 37.2456 72.3771 37.0452V36.8899H71.6083C71.5804 36.8903 71.5526 36.8852 71.5266 36.8747C71.5007 36.8643 71.4771 36.8487 71.4573 36.829C71.4376 36.8093 71.4219 36.7859 71.4114 36.7601C71.4009 36.7342 71.3958 36.7066 71.3962 36.6787V36.0765C71.3959 36.0486 71.4012 36.021 71.4117 35.9952C71.4223 35.9694 71.4379 35.9459 71.4576 35.9261C71.4774 35.9064 71.5009 35.8907 71.5267 35.8801C71.5526 35.8695 71.5803 35.8641 71.6083 35.8642H73.6699C73.6974 35.8633 73.7248 35.8683 73.7502 35.8789C73.7756 35.8895 73.7983 35.9055 73.8169 35.9257C73.8553 35.9664 73.8759 36.0207 73.8742 36.0765V37.0038C73.8863 37.4253 73.7756 37.8413 73.5555 38.2016C73.3358 38.5379 73.0216 38.8025 72.652 38.9624C72.2216 39.1442 71.757 39.2319 71.2896 39.2194Z" fill="#98B3C3"/>
<path d="M75.0181 39.1382C74.991 39.1393 74.964 39.1348 74.9387 39.125C74.9134 39.1152 74.8904 39.1002 74.8712 39.0811C74.8521 39.062 74.837 39.0392 74.8272 39.014C74.8173 38.9888 74.8128 38.9619 74.8139 38.9349V33.6424C74.8128 33.6154 74.8173 33.5884 74.8272 33.5632C74.837 33.5381 74.8521 33.5152 74.8712 33.4961C74.8904 33.477 74.9134 33.4621 74.9387 33.4522C74.964 33.4424 74.991 33.4379 75.0181 33.439H77.2425C77.9457 33.439 78.5005 33.6003 78.9068 33.9228C79.313 34.2453 79.5161 34.7026 79.5161 35.2948C79.5273 35.642 79.4288 35.9839 79.2345 36.2724C79.0477 36.537 78.7915 36.7454 78.4938 36.8746L79.6228 38.8779C79.638 38.9053 79.6465 38.936 79.6475 38.9673C79.6471 38.9895 79.6422 39.0115 79.6331 39.0318C79.6241 39.0522 79.611 39.0705 79.5947 39.0857C79.5781 39.1024 79.5584 39.1157 79.5366 39.1247C79.5148 39.1337 79.4915 39.1383 79.4679 39.1382H78.3883C78.3476 39.1412 78.3067 39.1359 78.2681 39.1227C78.2295 39.1094 78.194 39.0885 78.1638 39.0611C78.1193 39.0195 78.0814 38.9712 78.0516 38.9181L77.119 37.1305H76.2762V38.9382C76.2773 38.9652 76.2728 38.9922 76.2629 39.0173C76.253 39.0425 76.238 39.0654 76.2188 39.0845C76.1996 39.1036 76.1767 39.1185 76.1514 39.1283C76.1261 39.1382 76.0991 39.1427 76.0719 39.1416L75.0181 39.1382ZM76.2773 35.9786H77.2267C77.4362 35.9948 77.6436 35.9277 77.8036 35.792C77.8692 35.7242 77.9201 35.6437 77.9531 35.5554C77.9861 35.4672 78.0006 35.3732 77.9955 35.2792C78.0041 35.0908 77.938 34.9066 77.8114 34.7663C77.6895 34.636 77.4946 34.5708 77.2267 34.5708H76.2773V35.9786Z" fill="#98B3C3"/>
<path d="M82.8597 39.2198C82.4182 39.229 81.9795 39.1472 81.5713 38.9796C81.2145 38.8298 80.9152 38.5702 80.7173 38.2388C80.5014 37.8493 80.3966 37.4085 80.4143 36.964V33.6424C80.4132 33.6154 80.4177 33.5884 80.4276 33.5632C80.4374 33.5381 80.4524 33.5152 80.4716 33.4961C80.4908 33.477 80.5138 33.4621 80.5391 33.4522C80.5643 33.4424 80.5914 33.4379 80.6185 33.439H81.6734C81.7006 33.4379 81.7276 33.4424 81.7529 33.4522C81.7782 33.4621 81.8011 33.477 81.8203 33.4961C81.8395 33.5152 81.8545 33.5381 81.8644 33.5632C81.8743 33.5884 81.8788 33.6154 81.8777 33.6424V36.9562C81.8777 37.3092 81.9637 37.5737 82.1358 37.7495C82.2315 37.841 82.3453 37.9118 82.4699 37.9573C82.5945 38.0029 82.7272 38.0223 82.8597 38.0142C82.9908 38.0218 83.122 38.0021 83.245 37.9566C83.3681 37.911 83.4803 37.8405 83.5746 37.7495C83.7474 37.574 83.8327 37.3092 83.8327 36.9562V33.6424C83.8317 33.615 83.8368 33.5877 83.8474 33.5624C83.8581 33.5372 83.8741 33.5145 83.8944 33.496C83.9325 33.4591 83.9837 33.4386 84.0369 33.439H85.1008C85.154 33.4386 85.2052 33.4591 85.2433 33.496C85.2636 33.5145 85.2796 33.5372 85.2903 33.5624C85.301 33.5877 85.306 33.615 85.3051 33.6424V36.964C85.3227 37.4085 85.2179 37.8493 85.0021 38.2388C84.8046 38.5693 84.5067 38.8287 84.1514 38.9796C83.7422 39.148 83.3023 39.2298 82.8597 39.2198Z" fill="#98B3C3"/>
<path d="M86.5985 39.1388C86.5713 39.1399 86.5443 39.1354 86.519 39.1256C86.4937 39.1157 86.4708 39.1008 86.4516 39.0817C86.4324 39.0626 86.4174 39.0397 86.4075 39.0146C86.3976 38.9894 86.3931 38.9624 86.3942 38.9354V33.6429C86.3931 33.6159 86.3976 33.589 86.4075 33.5638C86.4174 33.5386 86.4324 33.5158 86.4516 33.4967C86.4708 33.4776 86.4937 33.4626 86.519 33.4528C86.5443 33.443 86.5713 33.4385 86.5985 33.4396H88.8901C89.2939 33.4308 89.6955 33.5014 90.0718 33.6474C90.3903 33.7719 90.664 33.9887 90.8574 34.2697C91.0563 34.5832 91.1549 34.9494 91.1402 35.3199C91.155 35.6856 91.0563 36.0468 90.8574 36.3545C90.6634 36.6303 90.3893 36.8405 90.0718 36.9568C89.6937 37.0954 89.293 37.1624 88.8901 37.1545H87.916V38.9422C87.9168 38.9694 87.9119 38.9966 87.9014 39.0218C87.891 39.047 87.8753 39.0698 87.8554 39.0885C87.8143 39.1264 87.7599 39.1468 87.7039 39.1455L86.5985 39.1388ZM87.8913 36.0283H88.8475C89.0502 36.0395 89.25 35.9759 89.4086 35.8495C89.4818 35.7797 89.5384 35.6946 89.5745 35.6003C89.6106 35.506 89.6252 35.4049 89.6173 35.3043C89.6231 35.1144 89.5593 34.929 89.4378 34.7825C89.3173 34.6418 89.1209 34.5714 88.8486 34.5714H87.8913V36.0283Z" fill="#98B3C3"/>
<path d="M94.2623 39.2191C93.8141 39.2294 93.3687 39.146 92.9549 38.9744C92.5968 38.8232 92.2939 38.5662 92.0874 38.2381C91.8673 37.8652 91.7489 37.4416 91.7439 37.0091C91.7387 36.7752 91.7361 36.5417 91.7361 36.3086C91.7361 36.0755 91.7387 35.8393 91.7439 35.6002C91.7508 35.1675 91.8707 34.7439 92.0918 34.3712C92.2994 34.0387 92.6029 33.7762 92.9627 33.6182C93.7953 33.2816 94.727 33.2816 95.5596 33.6182C95.9213 33.7766 96.2272 34.0388 96.4383 34.3712C96.6609 34.7431 96.7795 35.1674 96.7818 35.6002C96.793 35.8393 96.7986 36.0755 96.7986 36.3086C96.7986 36.5417 96.793 36.7752 96.7818 37.0091C96.7768 37.4416 96.6584 37.8652 96.4383 38.2381C96.2318 38.5662 95.9289 38.8232 95.5708 38.9744C95.1566 39.146 94.7108 39.2294 94.2623 39.2191ZM94.2623 38.0471C94.3918 38.0522 94.5211 38.0318 94.6427 37.9869C94.7642 37.9421 94.8756 37.8736 94.9704 37.7856C95.1537 37.6128 95.2506 37.3361 95.2611 36.9555C95.2712 36.7164 95.2768 36.4918 95.2768 36.2795C95.2768 36.0673 95.2768 35.8483 95.2611 35.6204C95.2591 35.4046 95.2101 35.1919 95.1174 34.9969C95.0414 34.8456 94.9198 34.7218 94.7696 34.6427C94.612 34.5652 94.438 34.5269 94.2623 34.531C94.0896 34.5275 93.9185 34.5658 93.764 34.6427C93.6133 34.7222 93.4907 34.8459 93.4127 34.9969C93.3169 35.191 93.2663 35.4041 93.2646 35.6204C93.2646 35.8438 93.2567 36.0673 93.2567 36.2795C93.2567 36.4918 93.2567 36.7164 93.2646 36.9555C93.2814 37.3354 93.3768 37.6125 93.5598 37.7856C93.6534 37.8737 93.7638 37.9423 93.8844 37.9872C94.0051 38.0321 94.1336 38.0524 94.2623 38.0471Z" fill="#98B3C3"/>
<path d="M99.6925 39.1382C99.6653 39.1393 99.6383 39.1348 99.613 39.125C99.5877 39.1152 99.5648 39.1002 99.5456 39.0811C99.5264 39.062 99.5114 39.0392 99.5015 39.014C99.4916 38.9888 99.4871 38.9619 99.4882 38.9349V33.6424C99.4871 33.6154 99.4916 33.5884 99.5015 33.5633C99.5114 33.5381 99.5264 33.5152 99.5456 33.4961C99.5648 33.477 99.5877 33.4621 99.613 33.4522C99.6383 33.4424 99.6653 33.4379 99.6925 33.439H100.747C100.775 33.438 100.802 33.4425 100.827 33.4523C100.853 33.4621 100.876 33.477 100.896 33.496C100.914 33.5154 100.929 33.5383 100.939 33.5635C100.949 33.5886 100.953 33.6154 100.953 33.6424V35.6043H102.973V33.6424C102.972 33.6154 102.976 33.5885 102.986 33.5633C102.996 33.5382 103.011 33.5152 103.03 33.496C103.049 33.4769 103.072 33.462 103.098 33.4522C103.123 33.4424 103.15 33.4379 103.177 33.439H104.232C104.259 33.4379 104.286 33.4424 104.311 33.4522C104.337 33.4621 104.36 33.477 104.379 33.4961C104.398 33.5152 104.413 33.5381 104.423 33.5633C104.433 33.5884 104.437 33.6154 104.436 33.6424V38.9349C104.437 38.9619 104.433 38.9888 104.423 39.014C104.413 39.0392 104.398 39.062 104.379 39.0811C104.36 39.1002 104.337 39.1152 104.311 39.125C104.286 39.1348 104.259 39.1393 104.232 39.1382H103.177C103.15 39.1394 103.123 39.1349 103.098 39.1251C103.072 39.1153 103.049 39.1004 103.03 39.0813C103.011 39.062 102.996 39.0391 102.986 39.0139C102.976 38.9888 102.972 38.9619 102.973 38.9349V36.907H100.953V38.9349C100.953 38.9618 100.949 38.9887 100.939 39.0138C100.929 39.0389 100.914 39.0619 100.896 39.0813C100.876 39.1003 100.853 39.1151 100.827 39.1249C100.802 39.1347 100.775 39.1393 100.747 39.1382H99.6925Z" fill="#98B3C3"/>
<path d="M105.784 39.1382C105.757 39.1393 105.73 39.1348 105.705 39.125C105.679 39.1152 105.656 39.1002 105.637 39.0811C105.618 39.062 105.603 39.0392 105.593 39.014C105.583 38.9888 105.579 38.9619 105.58 38.9349V33.6424C105.579 33.6154 105.583 33.5884 105.593 33.5632C105.603 33.5381 105.618 33.5152 105.637 33.4961C105.656 33.477 105.679 33.4621 105.705 33.4522C105.73 33.4424 105.757 33.4379 105.784 33.439H106.88C106.908 33.4379 106.935 33.4424 106.96 33.4522C106.985 33.4621 107.008 33.477 107.027 33.4961C107.047 33.5152 107.062 33.5381 107.071 33.5632C107.081 33.5884 107.086 33.6154 107.085 33.6424V38.9349C107.086 38.9619 107.081 38.9888 107.071 39.014C107.062 39.0392 107.047 39.062 107.027 39.0811C107.008 39.1002 106.985 39.1152 106.96 39.125C106.935 39.1348 106.908 39.1393 106.88 39.1382H105.784Z" fill="#98B3C3"/>
<path d="M108.434 39.1377C108.407 39.1388 108.38 39.1343 108.355 39.1244C108.329 39.1146 108.306 39.0997 108.287 39.0806C108.268 39.0615 108.253 39.0386 108.243 39.0134C108.233 38.9883 108.229 38.9613 108.23 38.9343V33.6418C108.229 33.6148 108.233 33.5879 108.243 33.5627C108.253 33.5375 108.268 33.5147 108.287 33.4956C108.306 33.4764 108.329 33.4615 108.355 33.4517C108.38 33.4418 108.407 33.4373 108.434 33.4384H109.302C109.374 33.4318 109.445 33.4534 109.501 33.4988C109.532 33.5265 109.558 33.558 109.58 33.5926L111.575 36.7277V33.6418C111.574 33.6148 111.579 33.5879 111.589 33.5627C111.599 33.5375 111.614 33.5147 111.633 33.4956C111.652 33.4764 111.675 33.4615 111.7 33.4517C111.725 33.4418 111.752 33.4373 111.78 33.4384H112.762C112.789 33.4373 112.816 33.4418 112.841 33.4517C112.866 33.4615 112.889 33.4764 112.908 33.4956C112.928 33.5147 112.943 33.5375 112.953 33.5627C112.962 33.5879 112.967 33.6148 112.966 33.6418V38.9343C112.966 38.9873 112.946 39.0383 112.909 39.0762C112.89 39.0964 112.867 39.1124 112.842 39.123C112.816 39.1336 112.789 39.1386 112.762 39.1377H111.886C111.851 39.1409 111.816 39.1367 111.783 39.1256C111.75 39.1144 111.72 39.0964 111.694 39.0729C111.666 39.0446 111.64 39.0148 111.616 38.9835L109.62 35.9668V38.931C109.621 38.958 109.617 38.9849 109.607 39.0101C109.597 39.0352 109.582 39.0581 109.563 39.0772C109.544 39.0963 109.521 39.1113 109.496 39.1211C109.47 39.1309 109.443 39.1354 109.416 39.1343L108.434 39.1377Z" fill="#98B3C3"/>
<path d="M116.449 39.2191C116 39.2294 115.555 39.146 115.14 38.9744C114.783 38.8232 114.48 38.5662 114.274 38.2381C114.054 37.8652 113.936 37.4416 113.931 37.0091C113.925 36.7752 113.922 36.5417 113.922 36.3086C113.922 36.0755 113.925 35.8393 113.931 35.6002C113.937 35.1676 114.057 34.744 114.277 34.3712C114.485 34.0389 114.789 33.7765 115.148 33.6182C115.981 33.2816 116.913 33.2816 117.745 33.6182C118.107 33.7725 118.415 34.0307 118.629 34.3601C118.852 34.7319 118.971 35.1562 118.973 35.5891C118.983 35.8282 118.988 36.0643 118.989 36.2974C118.989 36.5306 118.984 36.7641 118.973 36.9979C118.967 37.4303 118.849 37.8537 118.629 38.227C118.422 38.5547 118.12 38.8116 117.762 38.9632C117.347 39.1393 116.9 39.2264 116.449 39.2191ZM116.449 38.0471C116.578 38.0522 116.708 38.0318 116.829 37.9869C116.951 37.9421 117.062 37.8736 117.157 37.7856C117.339 37.6128 117.435 37.3361 117.447 36.9555C117.458 36.7164 117.463 36.4918 117.463 36.2795C117.463 36.0673 117.463 35.8483 117.447 35.6204C117.445 35.4047 117.396 35.192 117.304 34.9969C117.228 34.8458 117.106 34.7221 116.956 34.6427C116.799 34.5652 116.625 34.5269 116.449 34.531C116.276 34.5275 116.105 34.5658 115.951 34.6427C115.8 34.7222 115.677 34.8458 115.598 34.9969C115.503 35.1911 115.453 35.4042 115.451 35.6204C115.451 35.8438 115.443 36.0673 115.443 36.2795C115.443 36.4918 115.443 36.7164 115.451 36.9555C115.468 37.3354 115.566 37.6121 115.745 37.7856C115.839 37.8737 115.95 37.9421 116.071 37.987C116.191 38.0319 116.32 38.0523 116.449 38.0471Z" fill="#98B3C3"/>
<path d="M121.398 39.1386C121.317 39.1437 121.236 39.1173 121.174 39.0649C121.122 39.0186 121.084 38.9596 121.062 38.8939L119.394 33.6829C119.384 33.66 119.378 33.6354 119.377 33.6103C119.378 33.5881 119.382 33.5661 119.392 33.5458C119.401 33.5254 119.414 33.5071 119.43 33.4919C119.447 33.4752 119.466 33.4619 119.488 33.4529C119.51 33.4439 119.533 33.4393 119.557 33.4394H120.567C120.604 33.4373 120.641 33.4426 120.676 33.4551C120.711 33.4675 120.744 33.4869 120.771 33.512C120.813 33.5491 120.844 33.597 120.861 33.6505L122.015 37.4124L123.176 33.6505C123.198 33.5987 123.229 33.5516 123.269 33.512C123.296 33.4868 123.327 33.4673 123.362 33.4548C123.397 33.4423 123.433 33.4371 123.47 33.4394H124.48C124.504 33.4393 124.527 33.4439 124.549 33.4529C124.571 33.4619 124.59 33.4752 124.607 33.4919C124.623 33.5071 124.636 33.5254 124.645 33.5458C124.654 33.5661 124.659 33.5881 124.66 33.6103C124.659 33.6354 124.653 33.66 124.643 33.6829L122.975 38.8939C122.953 38.9594 122.914 39.0182 122.863 39.0649C122.801 39.1177 122.72 39.1442 122.638 39.1386H121.398Z" fill="#98B3C3"/>
<path d="M124.653 39.1386C124.608 39.136 124.566 39.1171 124.534 39.0856C124.503 39.0541 124.484 39.0121 124.481 38.9677C124.481 38.9428 124.484 38.9181 124.49 38.8939L126.411 33.6673C126.429 33.6056 126.465 33.5504 126.514 33.5087C126.575 33.4596 126.652 33.4349 126.73 33.4394H127.946C128.024 33.4347 128.101 33.4595 128.162 33.5087C128.212 33.5501 128.247 33.6054 128.264 33.6673L130.172 38.8939C130.184 38.9168 130.189 38.9421 130.189 38.9677C130.189 38.9899 130.184 39.0119 130.175 39.0322C130.166 39.0525 130.153 39.0709 130.136 39.0861C130.12 39.1028 130.1 39.1161 130.078 39.1251C130.056 39.1341 130.033 39.1387 130.009 39.1386H128.999C128.966 39.1411 128.933 39.1369 128.901 39.1264C128.87 39.1158 128.84 39.0991 128.815 39.0772C128.782 39.0461 128.755 39.0079 128.738 38.9654L128.419 38.1353H126.24L125.929 38.9654C125.913 39.0074 125.888 39.0455 125.856 39.0772C125.829 39.1002 125.798 39.1176 125.764 39.1281C125.73 39.1387 125.695 39.1423 125.66 39.1386H124.653ZM126.575 36.9644H128.096L127.327 34.8148L126.575 36.9644Z" fill="#98B3C3"/>
</svg>
